<svg width="61" height="73" viewBox="0 0 61 73" fill="none" xmlns="http://www.w3.org/2000/svg">
<g clip-path="url(#clip0_544_574)">
<path d="M9.9681 72.1776H60.3956V66.1158H9.9681C7.925 66.1158 6.90344 65.129 6.90344 63.1554C6.90344 61.1818 7.925 60.195 9.9681 60.195H60.3956V0H9.9681C7.36779 0 5.23181 0.869326 3.56018 2.60798C1.88855 4.34663 1.05273 6.48471 1.05273 9.0222V60.195H1.60994C1.23847 61.3228 1.05273 62.3096 1.05273 63.1554C1.05273 65.6929 1.88855 67.831 3.56018 69.5696C5.23181 71.3083 7.36779 72.1776 9.9681 72.1776ZM6.90344 9.0222C6.90344 7.04859 7.925 6.06179 9.9681 6.06179H54.5449V54.1332H9.9681C9.22515 54.1332 8.2036 54.3212 6.90344 54.6971V9.0222ZM18.8835 24.1062H45.6296V30.027H18.8835V24.1062ZM18.8835 11.9826H45.6296V18.0444H18.8835V11.9826Z" fill="#FD9347"/>
</g>
<defs>
<clipPath id="clip0_544_574">
<rect width="60.1787" height="72.1776" fill="white" transform="translate(0.634766)"/>
</clipPath>
</defs>
</svg>
