<svg width="81" height="73" viewBox="0 0 81 73" fill="none" xmlns="http://www.w3.org/2000/svg">
<path d="M69.6263 68.5041C69.6263 69.4784 69.2402 70.4128 68.553 71.1017C67.8658 71.7906 66.9337 72.1776 65.9618 72.1776H14.6582C13.6863 72.1776 12.7542 71.7906 12.0669 71.1017C11.3797 70.4128 10.9936 69.4784 10.9936 68.5041V35.4429H0L37.8437 0.956415C38.5184 0.341027 39.3978 0 40.31 0C41.2221 0 42.1015 0.341027 42.7762 0.956415L80.6199 35.4429H69.6263V68.5041ZM62.2972 64.8307V28.6727L40.31 8.63763L18.3227 28.6727V64.8307H62.2972ZM40.31 57.4837L28.0008 45.1445C27.2351 44.377 26.6278 43.4659 26.2134 42.4631C25.7991 41.4603 25.5858 40.3855 25.5858 39.3001C25.5858 38.2146 25.7991 37.1398 26.2134 36.1371C26.6278 35.1343 27.2351 34.2231 28.0008 33.4556C28.7664 32.6881 29.6754 32.0792 30.6757 31.6639C31.6761 31.2485 32.7483 31.0347 33.8311 31.0347C34.9138 31.0347 35.986 31.2485 36.9864 31.6639C37.9868 32.0792 38.8957 32.6881 39.6613 33.4556L40.31 34.1058L40.9586 33.4556C41.7242 32.6881 42.6332 32.0792 43.6336 31.6639C44.6339 31.2485 45.7061 31.0347 46.7889 31.0347C47.8717 31.0347 48.9438 31.2485 49.9442 31.6639C50.9446 32.0792 51.8535 32.6881 52.6192 33.4556C53.3848 34.2231 53.9922 35.1343 54.4065 36.1371C54.8209 37.1398 55.0342 38.2146 55.0342 39.3001C55.0342 40.3855 54.8209 41.4603 54.4065 42.4631C53.9922 43.4659 53.3848 44.377 52.6192 45.1445L40.31 57.4837Z" fill="#FD9347"/>
</svg>
