<svg width="86" height="65" viewBox="0 0 86 65" fill="none" xmlns="http://www.w3.org/2000/svg">
<path d="M75.8562 1.06622C74.941 0.474727 73.8945 0.116885 72.8085 0.0241513C71.7225 -0.068583 70.6303 0.10663 69.628 0.534389L36.7836 13.4579C36.006 13.7741 35.1744 13.9367 34.3349 13.9366H13.3081C11.5433 13.9366 9.85085 14.637 8.60298 15.8837C7.3551 17.1304 6.65405 18.8214 6.65405 20.5845V21.1163H0V37.0713H6.65405V37.7627C6.69575 39.498 7.41516 41.1483 8.65855 42.3607C9.90193 43.5731 11.5707 44.2516 13.3081 44.2511L21.293 61.1634C21.8336 62.3022 22.6849 63.2657 23.7489 63.943C24.8129 64.6203 26.0466 64.9841 27.3082 64.9926H30.6619C32.4174 64.9785 34.0962 64.2719 35.3326 63.0267C36.569 61.7815 37.2627 60.0986 37.2627 58.3446V44.8893L69.628 57.8128C70.424 58.1293 71.2731 58.2917 72.1299 58.2915C73.4592 58.27 74.7536 57.8636 75.8562 57.1214C76.7317 56.5308 77.4539 55.7404 77.963 54.8156C78.4722 53.8908 78.7535 52.8581 78.7839 51.8031V6.5441C78.7791 5.46191 78.5098 4.39726 77.9996 3.44263C77.4894 2.488 76.7536 1.67225 75.8562 1.06622ZM30.6086 20.5845V37.7627H13.3081V20.5845H30.6086ZM30.6086 58.3446H27.255L20.7074 44.2511H30.6086V58.3446ZM39.2323 38.5604C38.6002 38.2378 37.9412 37.9708 37.2627 37.7627V20.2122C37.9347 20.0737 38.5936 19.878 39.2323 19.6272L72.1299 6.5441V51.6435L39.2323 38.5604ZM78.9436 22.4459V35.7417C80.7084 35.7417 82.4009 35.0413 83.6488 33.7946C84.8966 32.5479 85.5977 30.857 85.5977 29.0938C85.5977 27.3307 84.8966 25.6398 83.6488 24.393C82.4009 23.1463 80.7084 22.4459 78.9436 22.4459Z" fill="#FD9347"/>
</svg>
