<svg width="68" height="74" viewBox="0 0 68 74" fill="none" xmlns="http://www.w3.org/2000/svg">
<path d="M44.3154 5.25773C43.6241 5.25773 42.9611 5.5347 42.4723 6.02771C41.9835 6.52072 41.7089 7.18938 41.7089 7.8866V13.1443C41.7089 13.8415 41.9835 14.5102 42.4723 15.0032C42.9611 15.4962 43.6241 15.7732 44.3154 15.7732C45.0067 15.7732 45.6697 15.4962 46.1585 15.0032C46.6473 14.5102 46.9219 13.8415 46.9219 13.1443C46.9219 12.4471 47.1965 11.7785 47.6853 11.2854C48.1742 10.7924 48.8371 10.5155 49.5284 10.5155C50.2197 10.5155 50.8827 10.7924 51.3715 11.2854C51.8603 11.7785 52.135 12.4471 52.135 13.1443C52.1355 14.4445 51.8174 15.7246 51.2089 16.8707C50.6004 18.0169 49.7204 18.9936 48.6471 19.7138C47.5739 20.434 46.3408 20.8755 45.0575 20.9989C43.7743 21.1222 42.4806 20.9238 41.2918 20.421C40.8314 24.5829 39.7615 28.6528 38.1171 32.498C35.9745 37.4351 33.1595 40.9577 30.6207 43.8127C28.8066 45.8579 27.6337 48.7918 26.9403 52.2829C26.247 55.753 26.0697 59.5438 26.0697 63.0928C26.0697 64.6859 25.4963 66.6102 24.4537 68.3505H46.4788C45.9363 66.8144 44.9364 65.4848 43.616 64.5436C42.2956 63.6025 40.7192 63.0958 39.1024 63.0928H36.4958C35.8045 63.0928 35.1416 62.8158 34.6527 62.3228C34.1639 61.8298 33.8893 61.1611 33.8893 60.4639C33.8893 59.7667 34.1639 59.098 34.6527 58.605C35.1416 58.112 35.8045 57.8351 36.4958 57.8351H39.1024C39.9938 57.8351 40.8644 57.9244 41.7089 58.0979V49.9485C41.7089 49.2512 41.9835 48.5826 42.4723 48.0896C42.9611 47.5966 43.6241 47.3196 44.3154 47.3196C45.0067 47.3196 45.6697 47.5966 46.1585 48.0896C46.6473 48.5826 46.9219 49.2512 46.9219 49.9485V60.4639C49.4242 62.3567 51.2279 65.1433 51.8743 68.3505H62.1179C61.5787 66.8122 60.5797 65.4805 59.2585 64.5388C57.9374 63.5971 56.3592 63.0919 54.7415 63.0928C54.0502 63.0928 53.3872 62.8158 52.8984 62.3228C52.4096 61.8298 52.135 61.1611 52.135 60.4639V23.6598C52.135 22.9626 52.4096 22.2939 52.8984 21.8009C53.3872 21.3079 54.0502 21.0309 54.7415 21.0309H59.9545C60.6458 21.0309 61.3088 20.754 61.7976 20.261C62.2864 19.7679 62.561 19.0993 62.561 18.4021V13.4913C62.5611 13.037 62.4445 12.5904 62.2225 12.1951C62.0005 11.7998 61.6807 11.4693 61.2943 11.2358L52.0307 5.63103C51.6258 5.38659 51.1628 5.25757 50.6909 5.25773H44.3154ZM15.6437 68.3505C17.2806 68.3505 18.5421 67.5513 19.4752 66.3789C20.4657 65.1223 20.8567 63.7132 20.8567 63.0928C20.8567 59.4124 21.0392 55.222 21.8263 51.2471C22.6135 47.3038 24.0523 43.3342 26.7318 40.311C29.1142 37.6296 31.5174 34.5801 33.3524 30.3792C35.1717 26.1888 36.4958 20.7049 36.4958 13.1443V7.8866C36.4958 5.79494 37.3197 3.78896 38.7861 2.30993C40.2526 0.830907 42.2415 0 44.3154 0H50.6909C52.1088 0.000135833 53.4999 0.389059 54.7154 1.12515L63.979 6.7299C65.1365 7.43065 66.0943 8.42169 66.7594 9.60656C67.4244 10.7914 67.774 12.1298 67.7741 13.4913V18.4021C67.7741 20.4937 66.9502 22.4997 65.4838 23.9787C64.0173 25.4578 62.0284 26.2887 59.9545 26.2887H57.348V58.0979C60.2917 58.704 62.9374 60.3172 64.8373 62.6645C66.7373 65.0119 67.7747 67.9492 67.7741 70.9794C67.7741 71.6766 67.4995 72.3453 67.0107 72.8383C66.5218 73.3313 65.8589 73.6083 65.1676 73.6083H14.3404C11.2641 73.6092 8.26907 72.6121 5.79786 70.7643C3.32666 68.9164 1.51036 66.3158 0.617331 63.3468C-0.275696 60.3777 -0.198075 57.1976 0.838724 54.2765C1.87552 51.3553 3.8165 48.848 6.37487 47.1251C6.65913 46.9259 6.97988 46.7859 7.31839 46.7131C7.65689 46.6403 8.00638 46.6363 8.34646 46.7012C8.68653 46.7661 9.01039 46.8986 9.29912 47.0911C9.58785 47.2836 9.83568 47.5322 10.0281 47.8223C10.2206 48.1125 10.3539 48.4383 10.4201 48.781C10.4864 49.1236 10.4843 49.4761 10.414 49.8179C10.3438 50.1597 10.2067 50.484 10.0109 50.7718C9.81501 51.0596 9.56429 51.3052 9.27332 51.4942C7.64391 52.59 6.40739 54.1856 5.7466 56.045C5.0858 57.9043 5.03582 59.9288 5.60404 61.8191C6.17225 63.7093 7.3285 65.365 8.90182 66.5412C10.4751 67.7174 12.382 68.3518 14.3404 68.3505H15.6437Z" fill="#FD9347"/>
</svg>
