<svg width="43" height="43" viewBox="0 0 43 43" fill="none" xmlns="http://www.w3.org/2000/svg">
<path d="M14.3139 6.26992C14.0795 6.50991 13.9482 6.83207 13.9482 7.16754C13.9482 7.50302 14.0795 7.82518 14.3139 8.06517L27.4101 21.5L14.3139 34.9321C14.0795 35.1721 13.9482 35.4943 13.9482 35.8297C13.9482 36.1652 14.0795 36.4874 14.3139 36.7274C14.4278 36.8444 14.5641 36.9374 14.7145 37.0009C14.865 37.0644 15.0267 37.0971 15.19 37.0971C15.3533 37.0971 15.515 37.0644 15.6655 37.0009C15.816 36.9374 15.9522 36.8444 16.0661 36.7274L29.9928 22.4379C30.2374 22.187 30.3743 21.8504 30.3743 21.5C30.3743 21.1495 30.2374 20.813 29.9928 20.562L16.0661 6.27261C15.9522 6.15558 15.816 6.06257 15.6655 5.99906C15.515 5.93555 15.3533 5.90283 15.19 5.90283C15.0267 5.90283 14.865 5.93555 14.7145 5.99906C14.5641 6.06257 14.4278 6.15558 14.3139 6.27261V6.26992Z" fill="#AFD276"/>
</svg>
