<svg width="469" height="200" viewBox="0 0 469 200" fill="none" xmlns="http://www.w3.org/2000/svg">
<path d="M279.879 123.783V139.127C281.761 137.377 283.496 135.513 285.129 133.58C285.39 133.271 285.632 132.967 285.875 132.658C287.382 130.799 288.804 128.877 290.086 126.853C290.191 126.681 290.285 126.517 290.386 126.349C291.57 124.443 292.629 122.451 293.609 120.4C293.929 119.744 294.214 119.072 294.511 118.404C295.449 116.263 296.339 114.088 297.066 111.802C310.394 70.3615 285.64 16.4355 277.296 0.0224609C274.495 7.24516 268.839 22.5885 257.191 54.7924C242.574 95.3354 250.414 117.847 260.328 129.831C260.664 130.281 261.054 130.726 261.449 131.175C261.504 131.23 261.617 131.289 261.672 131.343L264.304 133.136L265.089 133.695L265.875 134.199L274.273 139.968V105.152L264.519 95.3983C263.425 94.3045 263.425 92.5311 264.519 91.4374C265.613 90.3437 267.386 90.3436 268.48 91.4374L274.277 97.2343V67.5043C274.277 65.9379 275.507 64.7035 277.078 64.7035C278.644 64.7035 279.879 65.934 279.879 67.5043V103.899C279.882 103.981 279.882 104.056 279.879 104.138V113.872L287.773 102.446C288.613 101.157 290.347 100.821 291.636 101.719C292.925 102.559 293.261 104.352 292.363 105.583L279.879 123.783Z" fill="white" fill-opacity="0.3"/>
<path d="M161.049 83.8628C153.041 84.648 146.994 91.2534 146.994 99.2068C146.994 105.312 150.635 110.855 156.232 113.32C157.127 113.71 157.744 114.496 157.857 115.449C158.025 116.402 157.689 117.351 156.963 117.968C154.389 120.265 152.932 123.457 152.932 126.816C152.932 127.878 153.1 128.832 153.268 129.785C153.49 130.793 153.1 131.855 152.26 132.527C150.861 133.589 149.74 134.879 148.9 136.336C147.893 137.961 147.275 139.754 147.107 141.601C146.994 142.05 146.994 142.554 146.994 143.058C146.994 146.531 148.338 149.835 150.744 152.355C155.002 156.781 162.224 157.675 167.209 154.539C168.33 153.867 169.338 153.082 170.178 152.187C170.682 151.628 171.408 151.347 172.194 151.347H172.643C173.596 151.515 174.377 152.132 174.713 152.972C175.33 154.203 175.889 155.156 176.447 155.882C177.119 156.836 177.846 157.73 178.686 158.402V142.722L165.694 128.777C164.686 127.656 164.741 125.867 165.862 124.8C166.983 123.792 168.772 123.847 169.838 124.968L178.686 134.488V119.593C178.686 118.081 179.917 116.792 181.487 116.792C183.053 116.792 184.288 118.081 184.288 119.593V148.655C184.456 148.709 184.569 148.768 184.737 148.823L193.807 142.272C195.038 141.377 196.831 141.655 197.729 142.889C198.624 144.178 198.346 145.913 197.057 146.807L191.233 151.006L185.631 155.038L184.288 155.991V161.928C187.03 162.936 189.944 163.217 192.854 162.655C195.374 162.205 197.67 161.198 199.631 159.745C199.913 159.577 200.135 159.409 200.416 159.186C201.815 158.065 202.991 156.721 203.944 155.264C206.182 151.791 207.026 147.537 206.295 143.334L206.073 142.775C205.85 141.713 206.241 140.592 207.081 139.92C212.006 136.111 214.416 129.951 213.354 123.904C212.682 120.431 211.002 117.295 208.37 114.834C207.752 114.275 207.416 113.49 207.475 112.65C207.53 111.865 207.924 111.084 208.537 110.58C213.241 106.939 215.928 101.509 215.928 95.6847C215.928 83.0827 203.553 73.1187 190.616 77.8217C189.831 78.103 188.991 78.0444 188.264 77.6537C187.593 77.2631 187.089 76.5913 186.921 75.7515C185.8 70.1499 180.874 66.064 175.159 66.064C168.608 66.064 163.229 71.439 163.229 77.994C163.229 78.8885 163.342 79.7284 163.51 80.4588C163.678 81.2439 163.51 82.0837 163.061 82.7556C162.561 83.3572 161.834 83.8064 161.049 83.8611L161.049 83.8628Z" fill="white" fill-opacity="0.3"/>
<path d="M80.1993 54.7928C71.461 78.9998 69.7853 99.2888 75.2227 115.094C75.9337 117.203 76.7657 119.121 77.6524 120.938C77.8829 121.406 78.1251 121.844 78.3634 122.293C79.0704 123.625 79.8087 124.883 80.5782 126.055C80.8399 126.453 81.0977 126.867 81.3672 127.25C82.2852 128.551 83.2305 129.754 84.1914 130.859C84.2969 130.981 84.3984 131.125 84.5039 131.242C88.5937 135.715 92.8242 138.57 95.9419 140.32C96.1216 140.418 96.2974 140.512 96.4654 140.602C96.7427 140.731 97.0161 140.856 97.27 140.984V105.195L87.4809 95.4064C86.3871 94.3126 86.3871 92.5392 87.4809 91.4455C88.5747 90.3518 90.3481 90.3517 91.4418 91.4455L97.2699 97.2736V67.5116C97.2699 65.9647 98.5238 64.7108 100.071 64.7108C101.618 64.7108 102.872 65.9647 102.872 67.5116V113.836L110.707 102.438C111.586 101.16 113.329 100.848 114.602 101.715C115.875 102.594 116.2 104.336 115.325 105.609L102.872 123.718V139.113C102.922 139.063 102.981 139.02 103.032 138.969C103.524 138.516 103.985 138.067 104.438 137.563C105.278 136.723 106.118 135.883 106.903 134.988C107.125 134.766 107.293 134.539 107.461 134.317C108.356 133.254 109.254 132.188 110.036 131.125C110.258 130.844 110.485 130.567 110.653 130.285C111.661 128.996 112.555 127.653 113.395 126.254C113.411 126.231 113.434 126.215 113.45 126.196C114.504 124.5 115.454 122.766 116.286 120.981C116.297 120.961 116.301 120.946 116.313 120.93C137.176 78.61 109.235 17.59 100.251 0C97.4579 7.3125 91.7392 22.781 80.1999 54.789L80.1993 54.7928Z" fill="white" fill-opacity="0.3"/>
<path d="M355.649 137.023V155.984H356.379C359.684 155.984 362.821 154.921 365.508 152.906C365.641 152.808 365.735 152.675 365.864 152.573C368.372 150.577 370.11 147.917 370.946 144.909C371.001 144.71 371.106 144.534 371.153 144.331C371.192 144.167 371.18 143.988 371.211 143.823C371.407 142.839 371.555 141.843 371.555 140.812V85.6518C371.555 85.6479 371.559 85.644 371.559 85.64V40.91C371.559 35.9022 369.606 31.2186 366.063 27.726C362.54 24.1557 357.86 22.2065 352.852 22.2065C342.571 22.2065 334.207 30.5971 334.207 40.9135V140.809C334.207 141.93 334.367 143.023 334.609 144.102C335.02 145.922 335.727 147.66 336.781 149.207C338.859 152.367 341.996 154.559 345.555 155.484C346.609 155.758 347.707 155.871 348.816 155.914C349.008 155.922 349.187 155.984 349.379 155.984H350.047V102.972L344.297 94.527C344.254 94.4763 344.191 94.4528 344.152 94.3981L338.945 86.7809C338.074 85.5036 338.402 83.7615 339.68 82.8904C340.949 82.0193 342.691 82.3396 343.574 83.6208L348.684 91.0935C348.73 91.1482 348.793 91.1794 348.836 91.2419L350.051 93.0272V67.5071C350.051 65.9602 351.305 64.7063 352.852 64.7063C354.398 64.7063 355.652 65.9602 355.652 67.5071L355.648 127.136L363.52 115.691C364.398 114.414 366.141 114.101 367.414 114.968C368.687 115.847 369.012 117.59 368.137 118.863L355.649 137.023Z" fill="white" fill-opacity="0.3"/>
<path d="M70.4489 118.413C67.7067 117.854 65.1833 117.35 62.777 116.956C22.625 110.459 4.089 151.284 0 161.757C22.961 170.94 206.59 238.589 468.05 167.022C463.906 153.022 441.28 87.7842 382.988 87.7842C381.14 87.7842 379.238 87.8975 377.168 88.1201V140.815C377.168 146.917 374.5 152.456 369.961 156.37C369.582 156.698 369.285 157.089 368.879 157.39C368.875 157.39 368.875 157.394 368.871 157.394L368.867 157.397C365.261 160.136 360.937 161.589 356.394 161.589H355.656V178.218C355.656 179.765 354.402 181.019 352.855 181.019C351.308 181.019 350.054 179.765 350.054 178.218V161.589H349.386C348.515 161.589 347.648 161.534 346.796 161.429C340.82 160.686 335.46 157.397 332.077 152.351C331.245 151.085 330.605 149.714 330.062 148.304C329.413 146.636 328.976 144.901 328.777 143.116C328.691 142.351 328.605 141.585 328.605 140.815V102.792L302.062 114.722C301.839 115.226 301.671 115.785 301.444 116.347L300.484 118.429C299.523 120.808 298.476 123.121 297.3 125.336L296.46 127.156L294.757 129.804C294.28 130.554 293.819 131.316 293.319 132.046L293.046 132.476L291.648 134.492C291.366 134.828 291.089 135.164 290.808 135.5L289.96 136.371C287.257 139.671 284.355 142.808 281.007 145.578C280.726 145.914 280.335 146.25 279.89 146.64V178.226C279.89 179.773 278.636 181.027 277.089 181.027C275.542 181.027 274.288 179.773 274.288 178.226V147.203C273.741 146.992 273.253 146.734 272.737 146.492C272.499 146.379 272.273 146.289 272.046 146.176C271.054 145.672 270.136 145.164 269.417 144.738C268.296 144.066 267.179 143.395 266.171 142.668C265.444 142.223 264.804 141.691 264.152 141.176C263.749 140.867 263.331 140.566 262.941 140.246C262.882 140.188 262.804 140.16 262.753 140.09C262.027 139.586 261.355 138.969 260.738 138.355C260.456 138.133 260.234 137.906 259.952 137.629C259.671 137.406 259.394 137.125 259.167 136.902L216.776 161.484C216.722 161.766 216.663 162.043 216.554 162.379C216.104 163.609 215.882 164.281 212.804 163.668L212.69 163.949C212.522 163.836 212.073 163.727 211.401 163.445C211.233 163.391 211.12 163.332 211.011 163.277C209.667 162.941 207.987 162.438 205.858 161.766C205.3 162.383 204.628 162.941 203.956 163.5C201.214 165.852 197.683 167.477 193.878 168.203C192.534 168.426 191.19 168.539 189.847 168.539C187.999 168.539 186.097 168.316 184.304 167.813V188.442C184.304 189.988 183.05 191.242 181.503 191.242C179.956 191.242 178.702 189.988 178.702 188.442V165.407C176.128 163.95 173.776 161.825 171.983 159.246C171.815 159.024 171.593 158.797 171.425 158.52C171.034 158.801 170.64 159.078 170.194 159.305C167.339 161.098 163.979 162.047 160.452 162.047C155.245 162.047 150.374 159.977 146.733 156.223C143.319 152.641 141.413 147.992 141.413 143.063C141.413 141.942 141.526 140.766 141.749 139.704L116.999 131.079C116.491 131.84 115.963 132.563 115.428 133.286C114.323 134.821 113.143 136.301 111.905 137.746C111.671 138.02 111.468 138.321 111.229 138.582C111.007 138.805 110.839 139.032 110.671 139.254C109.913 140.063 109.151 140.871 108.296 141.629C107.417 142.508 106.53 143.379 105.6 144.215C105.573 144.239 105.546 144.27 105.518 144.293C104.678 145.078 103.784 145.86 102.886 146.532V178.227C102.886 179.773 101.632 181.027 100.085 181.027C98.5378 181.027 97.2839 179.773 97.2839 178.227V147.204C97.0612 147.09 96.8347 146.981 96.5573 146.922C95.8073 146.582 94.8542 146.102 93.8229 145.555C93.6589 145.469 93.4792 145.364 93.3073 145.27C92.7917 144.989 92.2995 144.735 91.7409 144.403C91.1042 144.004 90.4284 143.579 89.737 143.118C89.698 143.09 89.6628 143.071 89.6198 143.043C86.1628 140.731 82.2331 137.414 78.5998 132.875C78.4358 132.672 78.2678 132.485 78.1076 132.274C75.5178 128.93 73.1271 124.907 71.1818 120.141C70.8928 119.574 70.6428 119.035 70.4514 118.414L70.4489 118.413Z" fill="white" fill-opacity="0.3"/>
</svg>
