<svg width="43" height="43" viewBox="0 0 43 43" fill="none" xmlns="http://www.w3.org/2000/svg">
<path d="M25.5903 6.27261L11.6637 20.5594C11.4191 20.8103 11.2822 21.1469 11.2822 21.4973C11.2822 21.8477 11.4191 22.1843 11.6637 22.4352L25.5903 36.7274C25.7043 36.8444 25.8405 36.9374 25.991 37.0009C26.1415 37.0644 26.3031 37.0971 26.4665 37.0971C26.6298 37.0971 26.7915 37.0644 26.9419 37.0009C27.0924 36.9374 27.2286 36.8444 27.3426 36.7274C27.577 36.4874 27.7082 36.1652 27.7082 35.8297C27.7082 35.4943 27.577 35.1721 27.3426 34.9321L14.2464 21.4973L27.3426 8.06517C27.5762 7.8253 27.7069 7.50371 27.7069 7.16889C27.7069 6.83406 27.5762 6.51247 27.3426 6.27261C27.2286 6.15558 27.0924 6.06257 26.9419 5.99906C26.7915 5.93555 26.6298 5.90283 26.4665 5.90283C26.3031 5.90283 26.1415 5.93555 25.991 5.99906C25.8405 6.06257 25.7043 6.15558 25.5903 6.27261Z" fill="#AFD276"/>
</svg>
